<svg width="38.000000" height="38.000000" viewBox="0 0 38 38" fill="none" xmlns="http://www.w3.org/2000/svg" xmlns:xlink="http://www.w3.org/1999/xlink">
	<path id="Vector" d="M38 19.1162C38 8.55859 29.4934 0 19 0C8.50658 0 0 8.55859 0 19.1162C0 28.6577 6.94803 36.5659 16.0312 38L16.0312 24.6421L11.207 24.6421L11.207 19.1162L16.0312 19.1162L16.0312 14.9048C16.0312 10.1138 18.8678 7.46729 23.2078 7.46729C25.2866 7.46729 27.4609 7.84082 27.4609 7.84082L27.4609 12.5449L25.0651 12.5449C22.7048 12.5449 21.9688 14.0186 21.9688 15.5303L21.9688 19.1162L27.2383 19.1162L26.3959 24.6421L21.9688 24.6421L21.9688 38C31.052 36.5659 38 28.6577 38 19.1162Z" fill="#24A3FF" fill-opacity="1.000000" fill-rule="nonzero"/>
</svg>
