<svg width="669.957520" height="768.000000" viewBox="0 0 669.958 768" fill="none" xmlns="http://www.w3.org/2000/svg" xmlns:xlink="http://www.w3.org/1999/xlink">
	<desc>
			Created with Pixso.
	</desc>
	<defs>
		<clipPath id="clip22728_11631">
			<rect id="Assets / Symbol" width="669.957458" height="768.000000" fill="white" fill-opacity="0"/>
		</clipPath>
		<linearGradient id="paint_linear_19_592_0" x1="501.577087" y1="767.999146" x2="246.149857" y2="507.359009" gradientUnits="userSpaceOnUse">
			<stop stop-color="#F0145A"/>
			<stop offset="1.000000" stop-color="#693264"/>
		</linearGradient>
	</defs>
	<g clip-path="url(#clip22728_11631)">
		<path id="Union" d="M235.602 326.809L415.318 326.809C466.944 326.809 510.031 348.832 536.821 386.047C563.591 423.266 564.417 485.365 548.806 533.945L528.847 595.967C520.512 621.865 481.483 744.338 473.873 768L375.83 768C375.83 768 377.328 769.312 459.23 514.723C466.461 492.256 470.591 455.787 459.23 440.016C447.889 424.246 428.753 414.912 403.434 414.912L256.531 414.912C227.686 414.912 202.124 433.672 193.201 461.383L235.602 326.809Z" fill="url(#paint_linear_19_592_0)" fill-opacity="1.000000" fill-rule="evenodd"/>
		<path id="Union" d="M95.4902 768L-0.35498 768C81.2197 511.848 163.721 255.998 245.777 0L341.492 0C341.088 1.28125 340.679 2.56445 340.265 3.85156C207.49 412.385 252.782 274.42 95.4902 768Z" fill="#F0145A" fill-opacity="1.000000" fill-rule="evenodd"/>
	</g>
</svg>
