<svg width="168.950195" height="57.000000" viewBox="0 0 168.95 57" fill="none" xmlns="http://www.w3.org/2000/svg" xmlns:xlink="http://www.w3.org/1999/xlink">
	<desc>
			Created with Pixso.
	</desc>
	<defs>
		<clipPath id="clip23_3544">
			<rect id="Logo" width="168.950348" height="57.000000" fill="white" fill-opacity="0"/>
		</clipPath>
	</defs>
	<g clip-path="url(#clip23_3544)">
		<path id="h" d="M2.64355 15L0 15L0 34.0918L2.64355 34.0918L2.64355 27.0098C2.64355 25.8105 2.94141 24.8652 3.5376 24.1992C4.13379 23.5352 4.9502 23.1875 5.96094 23.1875C6.8291 23.1875 7.55518 23.5078 8.13818 24.1211C8.72119 24.7461 9.01904 25.5312 9.01904 26.4766L9.01904 34.1055L11.6758 34.1055L11.6758 26.4766C11.6758 24.7188 11.1963 23.334 10.2373 22.2969C9.27832 21.2578 8.02148 20.7383 6.49219 20.7383C6.05176 20.7383 5.61133 20.791 5.18359 20.9121C4.74268 21.0312 4.39307 21.1641 4.10791 21.3105C3.82275 21.457 3.55078 21.6172 3.30469 21.8027C3.05811 21.9902 2.88965 22.123 2.81201 22.2031C2.73438 22.2832 2.66943 22.3359 2.64355 22.377L2.64355 15Z" fill="#F0145A" fill-opacity="1.000000" fill-rule="nonzero"/>
		<path id="Vector" d="M14.8604 15L17.5854 15L17.5854 34.0762L14.8604 34.0762L14.8604 15Z" fill="#FFFFFF" fill-opacity="1.000000" fill-rule="evenodd"/>
		<path id="Vector" d="M33.6592 28.4902L33.7954 27.127C33.7954 25.3008 33.1958 23.7754 31.9697 22.5488C30.7432 21.3223 29.2173 20.7227 27.3911 20.7227C25.5654 20.7227 23.9849 21.377 22.6768 22.6855C21.3687 23.9922 20.7144 25.5469 20.7144 27.4004C20.7144 29.3066 21.3955 30.9414 22.731 32.3047C24.0664 33.668 25.6743 34.3496 27.5273 34.3496C28.2358 34.3496 28.8901 34.2402 29.5439 34.0488C30.1982 33.832 30.7432 33.6133 31.125 33.3945C31.5337 33.1504 31.9424 32.877 32.2969 32.5781C32.6509 32.2773 32.896 32.0605 33.0054 31.9238C33.1143 31.7871 33.1958 31.7051 33.2505 31.623L31.479 29.8516L31.0703 30.3691C30.7979 30.6973 30.3345 31.0234 29.6807 31.3789C28.999 31.7324 28.2905 31.8965 27.5273 31.8965C26.4648 31.8965 25.5654 31.5684 24.8022 30.8887C24.0391 30.207 23.5757 29.416 23.4395 28.4902L33.6592 28.4902ZM27.3911 23.0391C28.3994 23.0391 29.2173 23.3398 29.8984 23.9121C30.5527 24.5117 30.9614 25.2461 31.125 26.1738L23.5488 26.1738C23.7939 25.2461 24.23 24.5117 24.9111 23.9121C25.5654 23.3398 26.4102 23.0391 27.3911 23.0391Z" fill="#FFFFFF" fill-opacity="1.000000" fill-rule="nonzero"/>
		<path id="Vector" d="M46.3696 33.2852C46.3696 34.4844 46.0151 35.4668 45.2793 36.2285C44.5708 36.9648 43.6714 37.3457 42.5542 37.3457C42.0635 37.3457 41.5732 37.2656 41.1099 37.1289C40.6465 36.9922 40.2925 36.8281 39.9927 36.6387C39.6929 36.4473 39.4199 36.2559 39.1475 36.0117C38.9023 35.7656 38.7388 35.6016 38.6572 35.5215C38.5752 35.4395 38.521 35.3574 38.4663 35.3027L36.6948 37.0742L36.9131 37.3457C37.0493 37.5371 37.2944 37.7832 37.6216 38.0547C37.9487 38.3008 38.3301 38.5723 38.7661 38.8457C39.2021 39.0898 39.7471 39.3086 40.4287 39.5C41.1099 39.6895 41.8184 39.7988 42.5542 39.7988C44.4072 39.7988 45.9336 39.1719 47.2144 37.9199C48.4678 36.6387 49.0947 35.1113 49.0947 33.2598L49.0947 20.9961L46.3696 20.9961L46.3696 22.3574L45.9062 21.9492C45.6064 21.6758 45.1431 21.4043 44.4893 21.1309C43.835 20.8594 43.1265 20.7227 42.418 20.7227C40.7554 20.7227 39.3384 21.3496 38.1118 22.6309C36.8857 23.9121 36.2861 25.4375 36.2861 27.2637C36.2861 29.0898 36.8857 30.6152 38.1118 31.8965C39.3384 33.1777 40.7554 33.8047 42.418 33.8047C42.8813 33.8047 43.3174 33.75 43.7808 33.6406C44.2168 33.5039 44.5708 33.3672 44.8706 33.2324C45.1704 33.0957 45.4429 32.9316 45.688 32.7402C45.9336 32.5508 46.1245 32.4141 46.1787 32.3594L46.3696 32.168L46.3696 33.2852ZM39.0112 27.2637C39.0112 26.1191 39.3657 25.1641 40.1016 24.375C40.8374 23.584 41.7095 23.1758 42.6904 23.1758C43.6714 23.1758 44.5435 23.584 45.2793 24.375C45.9878 25.1641 46.3696 26.1191 46.3696 27.2637C46.3696 28.4082 45.9878 29.3613 45.2793 30.1523C44.5435 30.9414 43.6714 31.3516 42.6904 31.3516C41.7095 31.3516 40.8374 30.9414 40.1016 30.1523C39.3657 29.3613 39.0112 28.4082 39.0112 27.2637Z" fill="#FFFFFF" fill-opacity="1.000000" fill-rule="nonzero"/>
		<path id="Vector" d="M63.3193 34.0762L63.3193 25.6289C63.3193 24.2383 62.8018 23.0664 61.7935 22.1406C60.7852 21.1855 59.4771 20.7227 57.8691 20.7227C57.2422 20.7227 56.6152 20.8047 56.0161 20.9688C55.4165 21.1582 54.9258 21.3496 54.5713 21.5684C54.2173 21.7852 53.8628 22.0312 53.5361 22.3301C53.209 22.6035 53.0181 22.793 52.9092 22.9023C52.8271 23.0117 52.7456 23.0938 52.6909 23.1758L54.4624 24.9473L54.8169 24.4844C55.0347 24.1836 55.4165 23.9121 55.9888 23.6113C56.561 23.3125 57.1875 23.1758 57.8691 23.1758C58.6592 23.1758 59.3135 23.4199 59.8311 23.8848C60.3491 24.3477 60.5942 24.9473 60.5942 25.6289L55.8252 26.4453C54.6533 26.6367 53.6992 27.0996 53.0454 27.8359C52.3643 28.5723 52.0098 29.4707 52.0098 30.5332C52.0098 31.541 52.4458 32.4141 53.3179 33.1777C54.2173 33.9668 55.3071 34.3496 56.6426 34.3496C57.106 34.3496 57.542 34.2949 57.978 34.1582C58.4414 34.0488 58.7954 33.9121 59.0952 33.7773C59.395 33.6406 59.6675 33.4766 59.9131 33.2852C60.1582 33.0957 60.3218 32.959 60.4307 32.9043C60.5127 32.8223 60.5669 32.7402 60.5942 32.7129L60.5942 34.0762L63.3193 34.0762ZM57.0513 31.8965C56.3428 31.8965 55.7705 31.7324 55.3618 31.4062C54.9258 31.0781 54.7349 30.6973 54.7349 30.2617C54.7349 29.7969 54.8711 29.3887 55.1709 29.0898C55.4707 28.7891 55.8794 28.5723 56.3701 28.4902L60.5942 27.8086L60.5942 28.0801C60.5942 29.3066 60.2944 30.2344 59.6675 30.916C59.041 31.5684 58.1689 31.8965 57.0513 31.8965Z" fill="#FFFFFF" fill-opacity="1.000000" fill-rule="nonzero"/>
		<path id="Vector" d="M66.6079 15L69.333 15L69.333 34.0762L66.6079 34.0762L66.6079 15Z" fill="#FFFFFF" fill-opacity="1.000000" fill-rule="evenodd"/>
		<path id="LAW COMPANY" d="M26.9458 47.0801C26.5703 47.0801 26.2295 46.998 25.9243 46.8379C25.6226 46.6719 25.3838 46.4453 25.2085 46.1582Q25.1484 46.0566 25.1025 45.9492Q24.9502 45.5938 24.9502 45.1738C24.9502 44.8086 25.0366 44.4824 25.2085 44.1934C25.3838 43.9023 25.6226 43.6758 25.9243 43.5156C26.2295 43.3496 26.5718 43.2676 26.9512 43.2676C27.2705 43.2676 27.5581 43.3242 27.8145 43.4355C28.0742 43.5488 28.2915 43.709 28.4673 43.9199L27.9194 44.4258C27.6704 44.1387 27.3618 43.9941 26.9932 43.9941C26.7651 43.9941 26.5615 44.0449 26.3823 44.1465C26.2036 44.2441 26.063 44.3828 25.9614 44.5625C25.8628 44.7422 25.814 44.9453 25.814 45.1738C25.814 45.4023 25.8628 45.6055 25.9614 45.7832C26.063 45.9629 26.2036 46.1035 26.3823 46.2051C26.5615 46.3027 26.7651 46.3535 26.9932 46.3535C27.3618 46.3535 27.6704 46.207 27.9194 45.916L28.4673 46.4219C28.2915 46.6348 28.0742 46.7988 27.8145 46.9102C27.5547 47.0234 27.2651 47.0801 26.9458 47.0801ZM33.3833 47.0801C33.0005 47.0801 32.6548 46.9961 32.3462 46.832C32.0405 46.666 31.8003 46.4395 31.6245 46.1523C31.4526 45.8613 31.3667 45.5352 31.3667 45.1738C31.3667 44.8125 31.4526 44.4863 31.6245 44.1992C31.8003 43.9082 32.0405 43.6797 32.3462 43.5156C32.6548 43.3496 33.0005 43.2676 33.3833 43.2676Q33.894 43.2676 34.3135 43.4629Q34.3647 43.4883 34.415 43.5156Q34.6772 43.6562 34.876 43.8613Q35.0239 44.0137 35.1362 44.1992C35.3115 44.4863 35.3994 44.8125 35.3994 45.1738C35.3994 45.5352 35.3115 45.8613 35.1362 46.1523C34.9609 46.4395 34.7202 46.666 34.415 46.832Q34.3647 46.8594 34.3135 46.8828Q33.894 47.0801 33.3833 47.0801ZM0 43.3301L0.853027 43.3301L0.853027 46.3203L2.70068 46.3203L2.70068 47.0156L0 47.0156L0 43.3301ZM8.26758 46.2266L6.55664 46.2266L6.22998 47.0156L5.35596 47.0156L6.99854 43.3301L7.84131 43.3301L9.48877 47.0156L8.59375 47.0156L8.26758 46.2266ZM17.873 43.3301L16.6675 47.0156L15.7515 47.0156L14.9409 44.5215L14.1035 47.0156L13.1929 47.0156L11.9819 43.3301L12.8662 43.3301L13.6982 45.9219L14.5669 43.3301L15.3564 43.3301L16.1987 45.9414L17.0571 43.3301L17.873 43.3301ZM42.0264 47.0156L42.021 44.8047L40.9365 46.627L40.5522 46.627L39.4731 44.8516L39.4731 47.0156L38.6729 47.0156L38.6729 43.3301L39.3784 43.3301L40.7578 45.6211L42.1157 43.3301L42.8159 43.3301L42.8267 47.0156L42.0264 47.0156ZM47.9287 43.3301C48.2549 43.3301 48.5376 43.3848 48.7759 43.4941C49.0181 43.6035 49.2041 43.7578 49.334 43.957C49.4639 44.1582 49.5288 44.3945 49.5288 44.668C49.5288 44.9375 49.4639 45.1758 49.334 45.3789C49.2041 45.5781 49.0181 45.7324 48.7759 45.8418C48.5376 45.9473 48.2549 46 47.9287 46L47.186 46L47.186 47.0156L46.3335 47.0156L46.3335 43.3301L47.9287 43.3301ZM55.0122 46.2266L53.3013 46.2266L52.9746 47.0156L52.1006 47.0156L53.7432 43.3301L54.5854 43.3301L56.2334 47.0156L55.3384 47.0156L55.0122 46.2266ZM62.6279 43.3301L62.6279 47.0156L61.9277 47.0156L60.0903 44.7793L60.0903 47.0156L59.248 47.0156L59.248 43.3301L59.9536 43.3301L61.7856 45.5684L61.7856 43.3301L62.6279 43.3301ZM67.9014 45.7109L67.9014 47.0156L67.0483 47.0156L67.0483 45.6992L65.6216 43.3301L66.5273 43.3301L67.5117 44.9688L68.4961 43.3301L69.3335 43.3301L67.9014 45.7109ZM33.3833 46.3535C33.6006 46.3535 33.7974 46.3027 33.9727 46.2051C34.1484 46.1035 34.2852 45.9629 34.3833 45.7832Q34.4019 45.752 34.4185 45.7168Q34.5361 45.4746 34.5361 45.1738Q34.5361 44.873 34.4185 44.6289L34.418 44.6289Q34.4019 44.5957 34.3833 44.5625C34.2852 44.3828 34.1484 44.2441 33.9727 44.1465Q33.9087 44.1094 33.8403 44.082L33.8403 44.082Q33.6299 43.9941 33.3833 43.9941C33.1655 43.9941 32.9688 44.0449 32.7935 44.1465Q32.6831 44.209 32.5923 44.291Q32.4663 44.4062 32.3774 44.5625Q32.3672 44.582 32.3574 44.6016L32.3574 44.6016Q32.23 44.8555 32.23 45.1738Q32.23 45.4902 32.3574 45.7461L32.3584 45.748Q32.3677 45.7656 32.3774 45.7832C32.4795 45.9629 32.6182 46.1035 32.7935 46.2051C32.9688 46.3027 33.1655 46.3535 33.3833 46.3535ZM47.8813 45.3047C48.1372 45.3047 48.332 45.25 48.4653 45.1426C48.5986 45.0293 48.6655 44.8711 48.6655 44.668C48.6655 44.4609 48.5986 44.3027 48.4653 44.1934Q48.2656 44.0254 47.8813 44.0254L47.186 44.0254L47.186 45.3047L47.8813 45.3047ZM7.99902 45.5781L7.41455 44.168L6.83008 45.5781L7.99902 45.5781ZM54.7437 45.5781L54.1592 44.168L53.5747 45.5781L54.7437 45.5781Z" fill="#FFFFFF" fill-opacity="1.000000" fill-rule="evenodd"/>
		<rect id="Assets / Slash" width="11.617022" height="26.000000" transform="translate(73.333496 15.000000)" fill="#FFFFFF" fill-opacity="0"/>
		<path id="Slash" d="M81.7285 15L84.9507 15L76.5557 41L73.3335 41L81.7285 15Z" fill="#F0145A" fill-opacity="1.000000" fill-rule="evenodd"/>
		<path id="about us" d="M93.75 34.0977Q92.4707 34.0977 91.2988 33.7314Q90.1318 33.3604 89.4678 32.7988L90.1123 31.6807Q90.7715 32.1982 91.7676 32.5303Q92.7686 32.8623 93.8525 32.8623Q95.2881 32.8623 95.9766 32.4131Q96.6699 31.959 96.6699 31.1387Q96.6699 30.5576 96.2891 30.2305Q95.9082 29.8984 95.3271 29.7324Q94.751 29.5615 93.7891 29.4004Q92.5098 29.1611 91.7285 28.9121Q90.9521 28.6582 90.4004 28.0625Q89.8486 27.4619 89.8486 26.4023Q89.8486 25.0791 90.9473 24.2393Q92.0508 23.3994 94.0088 23.3994Q95.0293 23.3994 96.0498 23.6729Q97.0703 23.9414 97.7295 24.3809L97.1094 25.5186Q95.8105 24.6201 94.0088 24.6201Q92.6514 24.6201 91.958 25.1035Q91.2695 25.582 91.2695 26.3584Q91.2695 26.959 91.6602 27.3203Q92.0508 27.6816 92.627 27.8525Q93.208 28.0186 94.2285 28.1992Q95.4883 28.4385 96.25 28.6826Q97.0117 28.9219 97.5488 29.5029Q98.0908 30.0791 98.0908 31.0996Q98.0908 32.4814 96.9385 33.292Q95.791 34.0977 93.75 34.0977ZM109.868 29.1807L101.069 29.1807Q101.191 30.8213 102.329 31.832Q103.471 32.8379 105.21 32.8379Q106.191 32.8379 107.011 32.4912Q107.832 32.1396 108.432 31.4609L109.228 32.3789Q108.53 33.2188 107.48 33.6582Q106.43 34.0977 105.171 34.0977Q103.55 34.0977 102.3 33.4092Q101.05 32.7207 100.346 31.5Q99.6482 30.2793 99.6482 28.7412Q99.6482 27.1982 100.317 25.9824Q100.991 24.7617 102.158 24.083Q103.33 23.3994 104.79 23.3994Q106.25 23.3994 107.407 24.083Q108.569 24.7617 109.228 25.9727Q109.892 27.1787 109.892 28.7412L109.868 29.1807ZM104.79 24.6201Q103.271 24.6201 102.241 25.5918Q101.211 26.5586 101.069 28.1211L108.53 28.1211Q108.388 26.5586 107.358 25.5918Q106.328 24.6201 104.79 24.6201ZM114.15 25.5381Q114.648 24.4785 115.639 23.9414Q116.631 23.3994 118.09 23.3994L118.09 24.7812L117.749 24.7617Q116.089 24.7617 115.146 25.7822Q114.209 26.7979 114.209 28.6387L114.209 34L112.793 34L112.793 23.4824L114.15 23.4824L114.15 25.5381ZM129.951 23.4824L125.268 34L123.808 34L119.15 23.4824L120.629 23.4824L124.57 32.4424L128.549 23.4824L129.951 23.4824ZM131.953 23.4824L133.369 23.4824L133.369 34L131.953 34L131.953 23.4824ZM132.67 21.1777Q132.231 21.1777 131.928 20.8799Q131.63 20.582 131.63 20.1621Q131.63 19.7617 131.928 19.4639Q132.231 19.1611 132.67 19.1611Q133.11 19.1611 133.408 19.4541Q133.71 19.7422 133.71 20.1377Q133.71 20.582 133.408 20.8799Q133.11 21.1777 132.67 21.1777ZM141.688 34.0977Q140.13 34.0977 138.9 33.4189Q137.67 32.7402 136.966 31.5098Q136.268 30.2793 136.268 28.7412Q136.268 27.1982 136.966 25.9824Q137.67 24.7617 138.9 24.083Q140.13 23.3994 141.688 23.3994Q143.05 23.3994 144.12 23.9316Q145.189 24.459 145.809 25.4795L144.75 26.2021Q144.232 25.4209 143.431 25.0303Q142.63 24.6396 141.688 24.6396Q140.55 24.6396 139.637 25.1523Q138.729 25.6602 138.216 26.6025Q137.709 27.54 137.709 28.7412Q137.709 29.9619 138.216 30.8945Q138.729 31.8223 139.637 32.3301Q140.55 32.8379 141.688 32.8379Q142.63 32.8379 143.431 32.4619Q144.232 32.0811 144.75 31.2998L145.809 32.0176Q145.189 33.0381 144.11 33.5703Q143.031 34.0977 141.688 34.0977ZM157.568 29.1807L148.769 29.1807Q148.891 30.8213 150.029 31.832Q151.171 32.8379 152.91 32.8379Q153.891 32.8379 154.711 32.4912Q155.532 32.1396 156.132 31.4609L156.928 32.3789Q156.23 33.2188 155.18 33.6582Q154.13 34.0977 152.871 34.0977Q151.25 34.0977 150 33.4092Q148.75 32.7207 148.046 31.5Q147.348 30.2793 147.348 28.7412Q147.348 27.1982 148.017 25.9824Q148.691 24.7617 149.858 24.083Q151.03 23.3994 152.49 23.3994Q153.95 23.3994 155.107 24.083Q156.269 24.7617 156.928 25.9727Q157.592 27.1787 157.592 28.7412L157.568 29.1807ZM152.49 24.6201Q150.971 24.6201 149.941 25.5918Q148.911 26.5586 148.769 28.1211L156.23 28.1211Q156.088 26.5586 155.058 25.5918Q154.028 24.6201 152.49 24.6201ZM163.31 34.0977Q162.031 34.0977 160.859 33.7314Q159.692 33.3604 159.028 32.7988L159.672 31.6807Q160.331 32.1982 161.328 32.5303Q162.329 32.8623 163.413 32.8623Q164.848 32.8623 165.537 32.4131Q166.23 31.959 166.23 31.1387Q166.23 30.5576 165.849 30.2305Q165.468 29.8984 164.887 29.7324Q164.311 29.5615 163.349 29.4004Q162.07 29.1611 161.289 28.9121Q160.512 28.6582 159.96 28.0625Q159.409 27.4619 159.409 26.4023Q159.409 25.0791 160.507 24.2393Q161.611 23.3994 163.569 23.3994Q164.589 23.3994 165.61 23.6729Q166.63 23.9414 167.289 24.3809L166.669 25.5186Q165.371 24.6201 163.569 24.6201Q162.211 24.6201 161.518 25.1035Q160.83 25.582 160.83 26.3584Q160.83 26.959 161.22 27.3203Q161.611 27.6816 162.187 27.8525Q162.768 28.0186 163.789 28.1992Q165.048 28.4385 165.81 28.6826Q166.572 28.9219 167.109 29.5029Q167.651 30.0791 167.651 31.0996Q167.651 32.4814 166.498 33.292Q165.351 34.0977 163.31 34.0977Z" fill="#FFFFFF" fill-opacity="1.000000" fill-rule="evenodd"/>
	</g>
</svg>
