<svg width="130.000000" height="60.146484" viewBox="0 0 130 60.1465" fill="none" xmlns="http://www.w3.org/2000/svg" xmlns:xlink="http://www.w3.org/1999/xlink">
	<desc>
			Created with Pixso.
	</desc>
	<defs/>
	<path id="h" d="M4.95654 0L0 0L0 35.7988L4.95654 35.7988L4.95654 22.5176C4.95654 20.2715 5.51562 18.498 6.6333 17.25C7.75098 16.002 9.28174 15.3535 11.1768 15.3535C12.8047 15.3535 14.1655 15.9512 15.2588 17.0996C16.3525 18.2734 16.9111 19.7461 16.9111 21.5195L16.9111 35.8242L21.8921 35.8242L21.8921 21.5195C21.8921 18.2246 20.9932 15.627 19.1953 13.6797C17.397 11.7324 15.04 10.7598 12.1733 10.7598C11.3472 10.7598 10.521 10.8594 9.71924 11.084C8.89307 11.3086 8.23682 11.5586 7.70215 11.834C7.16797 12.1074 6.65771 12.4062 6.1958 12.7559C5.73438 13.1055 5.41846 13.3555 5.27246 13.5059C5.12695 13.6562 5.00537 13.7559 4.95654 13.8301L4.95654 0Z" fill="#F0145A" fill-opacity="1.000000" fill-rule="nonzero"/>
	<path id="Vector" d="M27.8628 0L32.9727 0L32.9727 35.7695L27.8628 35.7695L27.8628 0Z" fill="#FFFFFF" fill-opacity="1.000000" fill-rule="evenodd"/>
	<path id="Vector" d="M63.1118 25.293L63.3672 22.7383C63.3672 19.3145 62.2427 16.4531 59.9434 14.1543C57.644 11.8555 54.7827 10.7305 51.3589 10.7305C47.9355 10.7305 44.9717 11.957 42.519 14.4102C40.0664 16.8613 38.8398 19.7754 38.8398 23.25C38.8398 26.8262 40.1172 29.8926 42.6211 32.4473C45.125 35.002 48.1396 36.2793 51.6143 36.2793C52.9429 36.2793 54.1694 36.0762 55.3955 35.7168C56.6221 35.3086 57.644 34.9004 58.3594 34.4922C59.126 34.0312 59.8926 33.5195 60.5566 32.959C61.2207 32.3965 61.6807 31.9883 61.8853 31.7324C62.0898 31.4766 62.2427 31.3223 62.3452 31.1699L59.0239 27.8477L58.2573 28.8184C57.7461 29.4316 56.8774 30.0449 55.6514 30.709C54.3735 31.375 53.0454 31.6816 51.6143 31.6816C49.6216 31.6816 47.9355 31.0684 46.5044 29.791C45.0737 28.5137 44.2051 27.0312 43.9497 25.293L63.1118 25.293ZM51.3589 15.0742C53.2495 15.0742 54.7827 15.6367 56.0601 16.709C57.2861 17.834 58.0527 19.2129 58.3594 20.9492L44.1543 20.9492C44.6138 19.2129 45.4316 17.834 46.709 16.709C47.9355 15.6367 49.5195 15.0742 51.3589 15.0742Z" fill="#FFFFFF" fill-opacity="1.000000" fill-rule="nonzero"/>
	<path id="Vector" d="M86.9429 34.2871C86.9429 36.5352 86.2788 38.375 84.8989 39.8047C83.5703 41.1855 81.8843 41.9004 79.7891 41.9004C78.8696 41.9004 77.9497 41.748 77.0811 41.4922C76.2124 41.2363 75.5479 40.9297 74.9858 40.5723C74.4238 40.2148 73.9131 39.8574 73.4019 39.3965C72.9419 38.9375 72.6353 38.6309 72.4824 38.4766C72.3291 38.3242 72.2266 38.1699 72.1245 38.0684L68.8032 41.3887L69.2119 41.9004C69.4673 42.2578 69.9272 42.7188 70.5405 43.2285C71.1538 43.6895 71.8691 44.1992 72.6865 44.7109C73.5039 45.1699 74.5259 45.5801 75.8037 45.9375C77.0811 46.2949 78.4097 46.5 79.7891 46.5C83.2642 46.5 86.1255 45.3242 88.5269 42.9727C90.8774 40.5723 92.0527 37.7109 92.0527 34.2363L92.0527 11.2422L86.9429 11.2422L86.9429 13.7969L86.0742 13.0293C85.5122 12.5195 84.6436 12.0078 83.417 11.4961C82.1909 10.9863 80.8623 10.7305 79.5337 10.7305C76.417 10.7305 73.7598 11.9062 71.4604 14.3066C69.1606 16.709 68.0366 19.5703 68.0366 22.9941C68.0366 26.418 69.1606 29.2793 71.4604 31.6816C73.7598 34.082 76.417 35.2578 79.5337 35.2578C80.4023 35.2578 81.2202 35.1562 82.0889 34.9512C82.9062 34.6953 83.5703 34.4395 84.1328 34.1855C84.6948 33.9297 85.2056 33.623 85.6655 33.2656C86.1255 32.9062 86.4829 32.6523 86.5854 32.5488L86.9429 32.1914L86.9429 34.2871ZM73.1465 22.9941C73.1465 20.8477 73.8105 19.0586 75.1904 17.5781C76.5698 16.0957 78.2051 15.3301 80.0449 15.3301C81.8843 15.3301 83.5195 16.0957 84.8989 17.5781C86.2275 19.0586 86.9429 20.8477 86.9429 22.9941C86.9429 25.1406 86.2275 26.9277 84.8989 28.4102C83.5195 29.8926 81.8843 30.6582 80.0449 30.6582C78.2051 30.6582 76.5698 29.8926 75.1904 28.4102C73.8105 26.9277 73.1465 25.1406 73.1465 22.9941Z" fill="#FFFFFF" fill-opacity="1.000000" fill-rule="nonzero"/>
	<path id="Vector" d="M118.724 35.7695L118.724 19.9277C118.724 17.3223 117.753 15.125 115.862 13.3867C113.972 11.5996 111.519 10.7305 108.504 10.7305C107.329 10.7305 106.154 10.8828 105.029 11.1895C103.905 11.5488 102.985 11.9062 102.321 12.3145C101.657 12.7227 100.993 13.1836 100.379 13.7461C99.7666 14.2559 99.4087 14.6133 99.2041 14.8184C99.0508 15.0234 98.8979 15.1758 98.7954 15.3301L102.117 18.6504L102.781 17.7812C103.19 17.2207 103.905 16.709 104.979 16.1465C106.051 15.584 107.227 15.3301 108.504 15.3301C109.986 15.3301 111.212 15.7891 112.183 16.6582C113.154 17.5273 113.614 18.6504 113.614 19.9277L104.672 21.4609C102.475 21.8184 100.686 22.6875 99.46 24.0664C98.1821 25.4473 97.5181 27.1328 97.5181 29.125C97.5181 31.0156 98.3354 32.6523 99.9707 34.082C101.657 35.5645 103.701 36.2793 106.205 36.2793C107.073 36.2793 107.891 36.1777 108.708 35.9219C109.577 35.7168 110.242 35.4629 110.804 35.207C111.366 34.9512 111.877 34.6445 112.336 34.2871C112.796 33.9297 113.103 33.6738 113.308 33.5723C113.461 33.418 113.563 33.2656 113.614 33.2129L113.614 35.7695L118.724 35.7695ZM106.971 31.6816C105.643 31.6816 104.57 31.375 103.803 30.7617C102.985 30.1484 102.628 29.4316 102.628 28.6152C102.628 27.7461 102.883 26.9805 103.445 26.418C104.007 25.8555 104.774 25.4473 105.694 25.293L113.614 24.0156L113.614 24.5273C113.614 26.8262 113.052 28.5645 111.877 29.8418C110.702 31.0684 109.066 31.6816 106.971 31.6816Z" fill="#FFFFFF" fill-opacity="1.000000" fill-rule="nonzero"/>
	<path id="Vector" d="M124.89 0L130 0L130 35.7695L124.89 35.7695L124.89 0Z" fill="#FFFFFF" fill-opacity="1.000000" fill-rule="evenodd"/>
	<path id="LAW COMPANY" d="M50.5234 60.1465C49.8188 60.1465 49.1807 59.9961 48.6084 59.6934C48.042 59.3828 47.5947 58.959 47.2656 58.4199Q47.1538 58.2305 47.0674 58.0293Q46.7817 57.3633 46.7817 56.5742Q46.7817 55.7598 47.0864 55.082Q47.1655 54.9043 47.2656 54.7383C47.5947 54.1914 48.042 53.7676 48.6084 53.4648C49.1807 53.1543 49.8223 53 50.5332 53C51.1318 53 51.6714 53.1055 52.1519 53.3164C52.6392 53.5273 53.0469 53.8301 53.376 54.2246L52.3496 55.1719Q51.9658 54.7285 51.4824 54.5293Q51.0815 54.3613 50.6118 54.3613C50.1841 54.3613 49.8027 54.457 49.4668 54.6484C49.1313 54.832 48.8682 55.0918 48.6772 55.4277C48.4932 55.7637 48.4009 56.1465 48.4009 56.5742C48.4009 57.002 48.4932 57.3828 48.6772 57.7188C48.8682 58.0547 49.1313 58.3164 49.4668 58.5078C49.8027 58.6934 50.1841 58.7852 50.6118 58.7852Q51.0718 58.7852 51.4658 58.623Q51.9595 58.4219 52.3496 57.9648L53.376 58.9121C53.0469 59.3145 52.6392 59.6211 52.1519 59.8301C51.665 60.041 51.1221 60.1465 50.5234 60.1465ZM62.5933 60.1465C61.876 60.1465 61.2275 59.9922 60.6484 59.6836C60.0762 59.373 59.6255 58.9492 59.2964 58.4102C58.9736 57.8633 58.8125 57.252 58.8125 56.5742C58.8125 55.8965 58.9736 55.2871 59.2964 54.748C59.6255 54.2012 60.0762 53.7734 60.6484 53.4648C61.2275 53.1543 61.876 53 62.5933 53C63.3105 53 63.9556 53.1543 64.5278 53.4648C65.1006 53.7734 65.5513 54.2012 65.8804 54.748C66.2095 55.2871 66.374 55.8965 66.374 56.5742C66.374 57.252 66.2095 57.8633 65.8804 58.4102C65.5513 58.9492 65.1006 59.373 64.5278 59.6836C63.9556 59.9922 63.3105 60.1465 62.5933 60.1465ZM0 53.1191L1.59912 53.1191L1.59912 58.7246L5.06396 58.7246L5.06396 60.0293L0 60.0293L0 53.1191ZM15.5015 58.5469L12.2935 58.5469L11.6816 60.0293L10.043 60.0293L13.1226 53.1191L14.7021 53.1191L17.7915 60.0293L16.1138 60.0293L15.5015 58.5469ZM33.5122 53.1191L31.2515 60.0293L29.5342 60.0293L28.0137 55.3496L26.4443 60.0293L24.7363 60.0293L22.4663 53.1191L24.1245 53.1191L25.6841 57.9746L27.313 53.1191L28.7935 53.1191L30.373 58.0137L31.9819 53.1191L33.5122 53.1191ZM78.7993 60.0293L78.7896 55.8828L76.7559 59.2988L76.0356 59.2988L74.0117 55.9707L74.0117 60.0293L72.5112 60.0293L72.5112 53.1191L73.834 53.1191L76.4204 57.4121L78.9673 53.1191L80.2803 53.1191L80.2998 60.0293L78.7993 60.0293ZM89.8657 53.1191C90.478 53.1191 91.0078 53.2207 91.4551 53.4238C91.9092 53.6289 92.2583 53.918 92.5015 54.293C92.7451 54.668 92.8667 55.1133 92.8667 55.625C92.8667 56.1328 92.7451 56.5762 92.5015 56.959C92.2583 57.334 91.9092 57.623 91.4551 57.8262C91.0078 58.0254 90.478 58.123 89.8657 58.123L88.4741 58.123L88.4741 60.0293L86.875 60.0293L86.875 53.1191L89.8657 53.1191ZM103.148 58.5469L99.9395 58.5469L99.3276 60.0293L97.689 60.0293L100.769 53.1191L102.348 53.1191L105.438 60.0293L103.76 60.0293L103.148 58.5469ZM117.428 53.1191L117.428 60.0293L116.115 60.0293L112.67 55.834L112.67 60.0293L111.09 60.0293L111.09 53.1191L112.413 53.1191L115.848 57.3145L115.848 53.1191L117.428 53.1191ZM127.315 57.5801L127.315 60.0293L125.716 60.0293L125.716 57.5605L123.041 53.1191L124.739 53.1191L126.584 56.1875L128.431 53.1191L130 53.1191L127.315 57.5801ZM62.5933 58.7852C63.0015 58.7852 63.3696 58.6934 63.6987 58.5078Q63.9346 58.3711 64.1206 58.1855L64.1206 58.1855Q64.3242 57.9824 64.4688 57.7188C64.6597 57.3828 64.7549 57.002 64.7549 56.5742C64.7549 56.1465 64.6597 55.7637 64.4688 55.4277Q64.3169 55.1523 64.0991 54.9434Q63.9209 54.7734 63.6987 54.6484C63.3696 54.457 63.0015 54.3613 62.5933 54.3613C62.1851 54.3613 61.8169 54.457 61.4878 54.6484C61.1587 54.832 60.8989 55.0918 60.708 55.4277Q60.688 55.4648 60.6699 55.5Q60.4316 55.9785 60.4316 56.5742Q60.4316 57.1699 60.6699 57.6465L60.6704 57.6465Q60.6885 57.6836 60.708 57.7188C60.8989 58.0547 61.1587 58.3164 61.4878 58.5078C61.8169 58.6934 62.1851 58.7852 62.5933 58.7852ZM89.7769 56.8203C90.2573 56.8203 90.6226 56.7188 90.873 56.5137Q90.981 56.4238 91.0581 56.3105Q91.248 56.0332 91.248 55.625Q91.248 55.1934 91.0415 54.9141Q90.9697 54.8164 90.873 54.7383C90.6226 54.5273 90.2573 54.4219 89.7769 54.4219L88.4741 54.4219L88.4741 56.8203L89.7769 56.8203ZM14.998 57.334L13.9023 54.6875L12.8066 57.334L14.998 57.334ZM102.645 57.334L101.549 54.6875L100.453 57.334L102.645 57.334Z" fill="#FFFFFF" fill-opacity="1.000000" fill-rule="evenodd"/>
</svg>
